<svg width="853" height="443" viewBox="0 0 853 443" fill="none" xmlns="http://www.w3.org/2000/svg">
<g clip-path="url(#clip0_468_1591)">
<path d="M279.723 330.681H81.9707V442.121H279.723V330.681Z" fill="#F16B21"/>
<path opacity="0.5" d="M152.826 330.681H81.9707V442.121H152.826V330.681Z" fill="#B05834"/>
<path opacity="0.3" d="M190.323 330.681V357.828H208.768V330.681H190.323Z" fill="white"/>
<path d="M567.322 209.273H240.664V442.121H567.322V209.273Z" fill="#102048"/>
<path d="M599.13 126.953H538.698V71.7307C538.698 60.5901 547.72 51.5583 558.848 51.5583C564.41 51.5583 569.453 53.8193 573.095 57.4679C576.691 61.0679 578.949 66.0524 578.998 71.5451V71.7307L578.983 106.78C578.983 106.951 578.983 107.133 578.998 107.304V108.366L579.059 108.335C579.843 118.752 588.527 126.953 599.13 126.953Z" fill="#AAADB7"/>
<path d="M619.264 94.5962V106.799C619.264 112.368 617.021 117.416 613.361 121.046C609.735 124.707 604.692 126.956 599.13 126.956C588.524 126.956 579.84 118.755 579.059 108.339L619.264 94.5992V94.5962Z" fill="white"/>
<path d="M558.845 51.5583C558.413 51.5583 557.999 51.5736 557.583 51.604C557.306 51.6192 557.045 51.6344 556.784 51.6649C556.492 51.6953 556.215 51.7257 555.923 51.7714C555.753 51.7866 555.586 51.817 555.416 51.8474C555.2 51.8779 554.984 51.9235 554.787 51.9692C554.48 52.03 554.188 52.0909 553.881 52.17C553.449 52.2765 553.021 52.4013 552.589 52.5534C552.373 52.6143 552.157 52.6934 551.96 52.7695C551.759 52.8303 551.543 52.9247 551.346 53.0008C551.054 53.1073 550.777 53.232 550.501 53.369C550.254 53.4755 550.008 53.585 549.762 53.722C549.701 53.7524 549.622 53.7828 549.546 53.8285C549.33 53.935 549.115 54.0597 548.902 54.1815C548.057 54.6592 547.242 55.1978 546.488 55.7973C546.272 55.9677 546.041 56.1503 545.844 56.3207C545.598 56.5216 545.382 56.7194 545.151 56.9354C544.92 57.1515 544.704 57.3675 544.491 57.5805C543.892 58.1952 543.324 58.8434 542.801 59.5342C542.57 59.8415 542.354 60.1336 542.142 60.441C541.467 61.4726 540.88 62.5498 540.375 63.6879C540.254 63.9648 540.144 64.257 540.023 64.5491C539.701 65.4255 539.424 66.3354 539.208 67.2574C539.147 67.58 539.087 67.8873 539.023 68.1947C538.916 68.8246 538.822 69.4727 538.777 70.1179V353.075H269.397V83.0082C269.397 65.6355 283.459 51.5583 300.813 51.5583H558.848H558.845Z" fill="#FDFEFF"/>
<path d="M505.653 80.3943H301.241V91.1636H505.653V80.3943Z" fill="#BFBFBF"/>
<path d="M489.814 111.935H301.241V122.705H489.814V111.935Z" fill="#BFBFBF"/>
<path d="M479.874 143.477H301.241V154.246H479.874V143.477Z" fill="#BFBFBF"/>
<path d="M505.653 175.021H301.241V185.79H505.653V175.021Z" fill="#BFBFBF"/>
<path d="M491.054 206.945H380.233V217.715H491.054V206.945Z" fill="#BFBFBF"/>
<path d="M402.536 267.423C401.314 267.423 400.186 267.006 399.414 265.941C398.465 264.626 398.532 262.828 398.578 261.638L399.621 233.806L401.156 233.864L400.113 261.696C400.064 262.992 400.07 264.224 400.66 265.04C401.967 266.844 405.107 265.283 405.724 264.952C408.819 263.29 411.041 260.162 413.19 257.137C415.579 253.775 418.05 250.299 421.786 248.665C424.002 247.695 425.634 249.119 426.944 250.254C427.689 250.899 428.391 251.508 429.133 251.73C431.087 252.308 433.033 251.803 435.09 251.261C436.908 250.783 438.796 250.287 440.732 250.589C442.504 250.859 443.933 251.565 445.316 252.25C447.359 253.26 449.125 254.134 451.678 253.513C455.198 252.664 458.469 250.659 461.63 248.717C462.548 248.154 463.46 247.594 464.384 247.056C467.937 244.989 473.281 242.381 478.594 243.602L478.251 245.102C473.457 244.006 468.481 246.45 465.153 248.388C464.241 248.918 463.338 249.475 462.429 250.029C459.165 252.031 455.791 254.103 452.034 255.007C448.936 255.753 446.745 254.675 444.632 253.629C443.355 252.999 442.033 252.344 440.498 252.11C438.875 251.864 437.224 252.296 435.477 252.749C433.303 253.318 431.066 253.905 428.692 253.206C427.631 252.889 426.765 252.14 425.932 251.416C424.561 250.226 423.658 249.526 422.394 250.074C419.047 251.538 416.807 254.691 414.436 258.029C412.183 261.197 409.858 264.474 406.445 266.306C405.232 266.957 403.824 267.426 402.529 267.426L402.536 267.423Z" fill="#172C56"/>
<path opacity="0.3" d="M538.774 219.023V353.084H269.395V207.344L353.542 277.428C358.183 281.305 364.269 282.784 370.263 281.935C371.999 281.688 373.783 281.597 375.564 281.643L432.923 283.259C434.905 283.32 436.872 283.566 438.793 283.983C444.741 285.276 450.967 284.089 455.866 280.459L538.768 219.02L538.774 219.023Z" fill="#AAADB7"/>
<path d="M363.485 305.805L361.242 308.297L259.865 420.832L240.67 442.127V209.27L363.485 305.805Z" fill="#7E4C9E"/>
<path d="M567.322 209.273L444.498 305.805L567.322 442.121V209.273Z" fill="#7E4C9E"/>
<path d="M361.241 308.297L259.865 420.832L240.669 425.061V383.688C291.341 347.33 348.195 305.172 361.18 304.265L361.241 308.297Z" fill="#653A87"/>
<path d="M446.75 308.297L548.127 420.832L567.322 425.061V383.688C516.651 347.33 459.797 305.172 446.811 304.265L446.75 308.297Z" fill="#653A87"/>
<path d="M567.322 442.121H240.664L240.724 411.489L353.284 309.264C359.19 303.9 366.88 300.93 374.853 300.93H432.236C440.091 300.93 447.675 303.814 453.55 309.033L567.642 410.433L567.322 442.124V442.121Z" fill="#7E4C9E"/>
<path opacity="0.4" d="M585.278 425.671C607.186 403.739 607.186 368.181 585.278 346.25C563.371 324.318 527.852 324.318 505.945 346.25C484.038 368.181 484.038 403.739 505.945 425.671C527.852 447.602 563.371 447.602 585.278 425.671Z" fill="#5B4DAB"/>
<path d="M602.185 425.671C624.092 403.739 624.092 368.181 602.185 346.25C580.277 324.318 544.759 324.318 522.851 346.25C500.944 368.181 500.944 403.739 522.851 425.671C544.759 447.603 580.277 447.603 602.185 425.671Z" fill="#E91E25"/>
<path d="M561.315 416.392C558.653 416.392 556.102 415.275 554.275 413.257L534.429 391.317C532.721 389.427 532.864 386.509 534.752 384.799C536.642 383.089 539.557 383.232 541.263 385.121L561.109 407.059C561.148 407.101 561.224 407.174 561.376 407.153C561.534 407.129 561.574 407.034 561.598 406.98L582.961 358.291C583.985 355.957 586.7 354.898 589.037 355.92C591.369 356.946 592.429 359.669 591.405 362.003L570.042 410.692C568.738 413.662 566.054 415.747 562.856 416.264C562.343 416.349 561.826 416.389 561.312 416.389L561.315 416.392Z" fill="white"/>
<path d="M173.161 299.648L174.955 330.678H222.598L201.084 312.983L199.801 299.648L191.348 291.444L173.161 299.648Z" fill="#102048"/>
<path d="M116.04 285.802L108.355 313.497L147.546 330.678L136.02 304.52L138.837 292.725L129.104 279.902L116.04 285.802Z" fill="#102048"/>
<path d="M131.153 148.348C131.153 148.348 126.542 167.58 128.08 209.894C128.08 209.894 114.505 257.335 116.04 285.799L138.838 292.722C150.78 266.154 160.605 240.592 165.827 217.218C168.432 208.953 168.383 200.077 165.687 191.842L154.72 158.348L131.153 148.345V148.348Z" fill="#2A4A93"/>
<path d="M203.412 210.776L199.801 299.648H173.167C166.222 270.706 163.638 245.996 162.732 229.439C161.978 215.484 162.41 207.329 162.41 207.329C145.288 187.095 135.114 172.48 129.195 161.662C120.405 145.613 120.943 137.889 121.925 132.442C123.247 125.197 127.949 115.809 131.132 110.039C132.916 106.838 134.22 104.748 134.22 104.748L178.791 119.12L173.474 138.367L173.383 138.69C172.584 141.584 172.985 144.691 174.474 147.289L197.853 188.048C201.801 194.94 203.741 202.819 203.415 210.773L203.412 210.776Z" fill="#498AC9"/>
<path d="M189.557 300.227C189.557 300.227 189.533 300.227 189.521 300.227C189.202 300.208 188.962 299.931 188.983 299.615C189.038 298.723 194.533 210.356 188.01 196.291C186.864 193.82 184.922 190.668 182.672 187.016C173.259 171.74 157.498 146.17 160.808 109.318C160.835 109.002 161.109 108.761 161.434 108.795C161.75 108.822 161.984 109.102 161.957 109.422C158.683 145.89 174.316 171.253 183.654 186.408C185.925 190.09 187.882 193.27 189.059 195.802C195.704 210.131 190.366 296.033 190.135 299.682C190.117 299.989 189.861 300.224 189.56 300.224L189.557 300.227Z" fill="#1F3C86"/>
<path opacity="0.6" d="M178.791 119.12L173.475 138.367C152.972 129.92 138.202 117.072 131.132 110.039C132.916 106.838 134.22 104.748 134.22 104.748L178.791 119.12Z" fill="#1F3C86"/>
<path d="M186.323 314.228L185.87 306.52L200.558 306.255C200.938 306.261 201.138 306.501 201.144 306.821C201.151 307.14 200.898 307.402 200.579 307.408L187.092 307.652L187.408 313.023L201.056 312.408C201.363 312.396 201.646 312.642 201.658 312.959C201.673 313.278 201.427 313.546 201.108 313.561L186.323 314.228Z" fill="white"/>
<path d="M136.02 305.098C135.962 305.098 135.901 305.089 135.843 305.071L123.198 301.03L126.353 293.663L137.497 297.695C137.798 297.804 137.95 298.133 137.843 298.434C137.734 298.732 137.406 298.894 137.105 298.781L126.986 295.12L124.761 300.321L136.196 303.973C136.5 304.07 136.667 304.396 136.57 304.697C136.491 304.94 136.266 305.098 136.02 305.098Z" fill="white"/>
<path d="M194.546 33.9725L193.716 37.0794L190.396 49.6502L188.153 58.0825L168.173 50.8979L177.809 31.1576L182.511 24.3564L194.546 33.9725Z" fill="#F7B182"/>
<path d="M193.716 37.0794L190.396 49.6502C184.508 43.2507 185.709 35.2627 185.709 35.2627L193.716 37.0794Z" fill="#102048"/>
<path d="M209.537 16.2833C209.537 16.2833 208.258 44.7479 193.91 42.3104C179.566 39.8729 179.822 15.3856 179.822 15.3856L198.522 9.36035L209.537 16.2833Z" fill="#F7B182"/>
<path d="M189.621 20.5771C189.621 20.5771 197.85 12.084 209.537 16.2803C209.537 16.2803 214.693 18.4591 216.711 14.2293C216.711 14.2293 200.19 -7.69581 187.22 2.88181C187.22 2.88181 163.973 7.9789 177.806 31.1547L189.621 20.5771Z" fill="#102048"/>
<path d="M190.666 26.2192C193.074 25.8349 194.668 23.2846 194.228 20.523C193.789 17.7613 191.481 15.834 189.073 16.2183C186.666 16.6026 185.071 19.1528 185.511 21.9145C185.951 24.6762 188.259 26.6035 190.666 26.2192Z" fill="#F7B182"/>
<path d="M210.004 31.0514C210.23 29.6528 209.281 28.3356 207.884 28.1094C206.487 27.8831 205.171 28.8334 204.945 30.232C204.719 31.6306 205.668 32.9478 207.065 33.1741C208.462 33.4004 209.778 32.45 210.004 31.0514Z" fill="#F7B182"/>
<path opacity="0.4" d="M197.561 32.4388C200.002 32.4388 201.98 30.4578 201.98 28.0142C201.98 25.5706 200.002 23.5896 197.561 23.5896C195.12 23.5896 193.141 25.5706 193.141 28.0142C193.141 30.4578 195.12 32.4388 197.561 32.4388Z" fill="#E95D60"/>
<path d="M280.493 74.0524C280.493 74.0524 283.137 77.6827 277.742 81.3161C277.742 81.3161 282.031 84.2557 267.246 89.1002C265.601 89.6388 263.726 90.1927 261.574 90.7769L255.64 69.2048C255.64 69.2048 282.031 60.2796 282.69 63.1431C283.35 66.0035 277.973 69.8682 277.973 69.8682C277.973 69.8682 287.426 67.5464 280.493 74.0524Z" fill="#F7B182"/>
<path d="M255.64 69.2049L224.392 73.2126C224.392 73.2126 179.435 41.1572 170.216 44.2337C160.993 47.3102 129.87 97.3165 129.87 97.3165C129.87 97.3165 121.417 100.01 121.8 103.47C122.183 106.933 176.745 135.269 184.046 128.088C188.636 123.572 193.907 87.5697 193.907 87.5697L213.789 95.8498C219.683 98.3055 226.197 98.8594 232.423 97.4383L261.576 90.7801L255.637 69.1988L255.64 69.2049Z" fill="#FFDC00"/>
<g opacity="0.8">
<path d="M253.664 88.4765C252.591 84.2771 251.543 80.1781 250.591 76.2343C250.327 75.1358 250.083 74.0159 249.84 72.89C249.634 71.9375 249.421 70.982 249.196 70.0295L248.047 70.1756C248.278 71.1585 248.5 72.1475 248.713 73.1334C248.959 74.2685 249.202 75.3975 249.472 76.5051C250.427 80.452 251.476 84.554 252.549 88.7595C252.877 90.0406 253.205 91.3308 253.533 92.6211L254.658 92.3655C254.327 91.0661 253.996 89.7667 253.667 88.4765H253.664Z" fill="white"/>
<path d="M200.169 57.2092C199.695 57.3096 199.221 57.4161 198.744 57.5165C190.084 59.3241 180.822 60.7847 171.76 59.251C167.168 58.472 162.942 56.8805 159.34 54.6682C159.097 54.9664 158.857 55.2616 158.611 55.572C162.368 57.903 166.778 59.5766 171.569 60.3891C180.816 61.9563 190.208 60.4774 198.978 58.6485C199.847 58.4659 200.716 58.2742 201.586 58.0856C201.115 57.7934 200.643 57.5013 200.166 57.2122L200.169 57.2092Z" fill="white"/>
<path d="M188.199 112.632C185.597 112.848 182.907 113.07 180.293 112.827C172.617 112.112 165.809 107.331 161.352 103.795C159.775 102.541 158.228 101.242 156.68 99.9396C152.747 96.6288 148.68 93.2084 144.102 90.6553C141.461 89.1855 138.78 88.1417 136.144 87.4966C135.916 87.8465 135.704 88.1721 135.488 88.5099C138.144 89.1185 140.862 90.1745 143.543 91.6656C148.023 94.1639 152.048 97.5477 155.942 100.825C157.495 102.134 159.051 103.442 160.638 104.702C165.207 108.326 172.204 113.232 180.186 113.977C182.901 114.227 185.642 114.001 188.293 113.782C188.554 113.761 188.819 113.749 189.08 113.728C189.172 113.338 189.26 112.946 189.348 112.553C188.965 112.583 188.582 112.602 188.196 112.632H188.199Z" fill="white"/>
</g>
<path d="M193.91 87.5728L185.815 84.0186C185.815 84.0186 187.882 96.8906 191.785 98.7317L193.91 87.5728Z" fill="#E29931"/>
<path d="M267.242 89.1002C265.598 89.6389 263.722 90.1927 261.57 90.777L255.637 69.2048L267.239 89.1002H267.242Z" fill="#E0896D"/>
<path d="M622.845 219.254L641.672 227.717L655.704 181.481L637.326 176.646C632.468 187.515 627.517 201.425 622.845 219.254Z" fill="#E0896D"/>
<path d="M637.326 176.645L655.704 181.481L671.388 138.349C671.388 138.349 652.433 135.784 637.329 176.645H637.326Z" fill="#64A340"/>
<path d="M615.03 203.226L601.455 240.668L652.175 260.159L662.421 221.177L615.03 203.226Z" fill="#102048"/>
<path d="M631.718 253.12C631.347 254.179 628.313 255.445 626.365 253.714C622.568 253.041 620.006 252.56 617.638 249.94C615.51 249.122 614.556 246.806 615.528 244.852C617.392 241.112 620.276 235.842 621.65 236.052C623.374 236.313 622.127 241.636 622.127 241.636C622.127 241.636 625 234.88 627.724 235.775C628.939 236.173 626.015 242.606 625.72 243.282C626.179 242.667 629.824 237.759 631.219 238.791C632.614 239.837 629.216 245.637 628.857 246.252C629.252 245.759 632.45 241.897 634.01 243.176C634.684 243.742 633.623 247.664 631.721 253.12H631.718Z" fill="#E0896D"/>
<path d="M726.972 381.966C726.972 381.966 751.563 379.273 761.937 356.578L734.656 358.117L726.972 381.966Z" fill="#102048"/>
<path d="M754.125 356.836L730.559 371.452L741.158 387.042L763.883 371.543L754.125 356.836Z" fill="#E0896D"/>
<path d="M778.458 393.505L763.883 371.543L741.158 387.042L745.031 392.738L742.724 423.126L778.458 393.505Z" fill="#102048"/>
<path d="M756.515 391.412L744.977 391.999L745.054 393.534L756.593 392.946L756.515 391.412Z" fill="white"/>
<path d="M687.012 398.38L661.139 396.84V417.81L688.97 416.042L687.012 398.38Z" fill="#E0896D"/>
<path d="M661.138 417.81V422.739L641.672 442.23H691.879L688.97 416.042L661.138 417.81Z" fill="#102048"/>
<path d="M660.923 422.431L660.15 423.763L671.175 430.171L671.948 428.84L660.923 422.431Z" fill="white"/>
<path d="M685.705 264.492C685.307 274.032 685.228 284.095 685.398 294.235C685.553 303.035 685.875 311.9 686.334 320.56C688.547 363.595 693.666 401.709 693.666 401.709L653.706 406.849C634.757 274.525 647.052 218.612 647.052 218.612L664.467 215.058L679.93 211.902L697.265 208.363C697.049 208.686 696.833 209.024 696.636 209.38C693.991 213.704 691.903 219.458 690.289 226.29C687.754 236.922 686.34 250.123 685.708 264.495L685.705 264.492Z" fill="#3A6BE8"/>
<path d="M686.334 320.56C669.583 284.911 675.869 256.568 675.869 256.568L685.705 264.492C685.307 274.032 685.228 284.095 685.398 294.235C685.553 303.035 685.875 311.9 686.334 320.56Z" fill="#1F3C86"/>
<path d="M761.937 356.578C742.726 363.887 726.972 381.966 726.972 381.966C710.387 352.625 696.232 323.159 685.398 294.232C676.376 270.167 669.659 246.471 665.771 223.548C665.294 220.703 664.85 217.87 664.464 215.055C664.418 214.793 664.373 214.516 664.342 214.255L679.927 211.899L696.633 209.377L705.071 208.099C705.977 213.485 707.193 219.114 708.652 224.914C723.19 282.83 761.937 356.575 761.937 356.575V356.578Z" fill="#3A6BE8"/>
<g opacity="0.8">
<path d="M728.13 282.808C727.887 282.2 727.641 281.594 727.401 280.982C724.252 278.965 721.239 276.75 718.646 274.084C711.403 266.644 707.737 255.625 709.087 245.324C709.503 242.15 710.397 239.037 711.692 236.088C711.527 235.529 711.369 234.969 711.208 234.409C709.561 237.811 708.427 241.453 707.941 245.172C706.548 255.816 710.336 267.204 717.82 274.887C720.865 278.012 724.437 280.526 728.13 282.805V282.808Z" fill="white"/>
<path d="M748.234 328.758C748.073 328.417 747.912 328.077 747.751 327.73C743.511 329.464 738.431 329.762 733.157 330.061C727.835 330.362 722.333 330.675 717.506 332.559C712.603 334.473 708.801 337.887 706.041 342.075C706.238 342.482 706.439 342.89 706.636 343.298C709.302 339.035 713.038 335.544 717.926 333.636C722.582 331.819 727.99 331.512 733.221 331.214C738.422 330.919 743.733 330.605 748.231 328.758H748.234Z" fill="white"/>
<path d="M656.172 324.376C668.954 330.873 679.31 341.764 688.462 351.98C688.411 351.35 688.359 350.717 688.307 350.081C679.334 340.121 669.185 329.695 656.691 323.348C652.703 321.321 648.6 319.833 644.502 318.88C644.527 319.282 644.551 319.684 644.575 320.089C648.469 321.023 652.372 322.447 656.169 324.376H656.172Z" fill="white"/>
<path d="M691.523 383.731C688.325 384.495 684.827 384.303 681.939 383.624C678.933 382.918 675.987 381.753 673.136 380.627C670.103 379.425 666.963 378.186 663.704 377.474C659.163 376.482 654.406 376.604 649.874 377.696C649.919 378.077 649.968 378.466 650.013 378.85C654.415 377.769 659.044 377.636 663.458 378.6C666.625 379.294 669.723 380.517 672.714 381.701C675.604 382.842 678.589 384.023 681.675 384.747C684.672 385.45 688.295 385.651 691.651 384.881C691.608 384.507 691.566 384.114 691.523 383.731Z" fill="white"/>
<path d="M652.706 275.408C653.126 283.466 649.475 291.393 643.469 296.633C643.484 297.12 643.502 297.622 643.521 298.115C650.208 292.662 654.311 284.071 653.855 275.347C653.451 267.59 649.46 260.323 643.505 255.482C643.487 255.96 643.469 256.446 643.451 256.933C648.785 261.559 652.33 268.266 652.703 275.405L652.706 275.408Z" fill="white"/>
</g>
<path opacity="0.4" d="M708.651 224.917C702.536 226.025 696.31 226.378 690.286 226.287C681.325 226.132 672.826 224.948 665.771 223.548C654.612 221.348 647.049 218.609 647.049 218.609L664.464 215.055C664.418 214.793 664.372 214.516 664.342 214.255L679.926 211.899L697.262 208.36C697.046 208.683 696.83 209.021 696.633 209.377L705.071 208.099C705.977 213.485 707.192 219.114 708.651 224.914V224.917Z" fill="#1F3C86"/>
<path d="M685.398 295.002C685.082 295.002 684.787 294.804 684.675 294.49L673.574 263.235L660.23 255.171C659.868 254.952 659.75 254.478 659.971 254.115C660.193 253.753 660.668 253.638 661.026 253.857L674.839 262.204L686.125 293.973C686.268 294.375 686.058 294.816 685.66 294.956C685.575 294.986 685.487 295.002 685.401 295.002H685.398Z" fill="#1F3C86"/>
<path d="M711.603 214.069C685.86 223.871 641.672 218.363 641.672 218.363C643.472 199.639 643.593 144.246 672.413 137.323L685.292 138.678C692.04 141.325 697.311 151.419 701.277 163.402C703.661 170.541 705.566 178.359 707.071 185.68C710.238 200.99 711.606 214.069 711.606 214.069H711.603Z" fill="#6FBE47"/>
<path d="M707.068 185.684C694.942 178.621 692.389 162.712 692.389 162.712L701.274 163.405C703.657 170.544 705.563 178.362 707.068 185.684Z" fill="#102048"/>
<path d="M685.283 138.668L683.553 163.478L710.004 177.619L715.36 151.915C692.104 138.16 685.283 138.668 685.283 138.668Z" fill="#6FBE47"/>
<path d="M735.672 172.772C735.042 173.724 734.334 174.619 733.535 175.435C732.091 176.944 730.383 178.173 728.477 179.095C725.665 180.465 722.589 181.049 719.546 180.863C716.996 180.708 714.488 180.002 712.169 178.77L710.001 177.616L715.366 151.906C716.795 152.767 718.288 153.659 719.868 154.629C719.868 154.629 740.802 125.011 742.338 125.596C743.721 126.104 741.368 130.69 740.894 131.597C741.799 130.258 748.593 120.289 750.408 120.979C751.852 121.518 750.025 125.949 749.794 126.487C750.21 125.888 753.852 120.517 756.05 121.81C757.065 122.41 753.144 128.225 752.761 128.812C753.238 128.35 757.588 124.135 758.664 125.398C759.77 126.676 755.545 131.706 755.068 132.275C755.499 131.892 759.217 128.645 760.402 130.212C761.956 132.226 742.927 161.692 735.672 172.772Z" fill="#E0896D"/>
<path opacity="0.4" d="M733.534 175.434C732.091 176.944 730.382 178.173 728.476 179.095C725.665 180.465 722.589 181.049 719.546 180.863C719.409 180.309 719.345 179.74 719.345 179.156C719.345 174.972 722.741 171.57 726.923 171.57C729.75 171.57 732.224 173.125 733.531 175.431L733.534 175.434Z" fill="#E95D60"/>
<path d="M669.367 213.153C658.008 213.153 647.828 212.426 642.837 211.997C642.496 211.966 642.289 211.948 642.235 211.948C641.922 211.933 641.669 211.671 641.678 211.358C641.685 211.044 641.934 210.795 642.25 210.795C642.289 210.795 642.523 210.813 642.937 210.849C654.314 211.826 692.788 214.373 710.208 206.233C710.491 206.099 710.84 206.224 710.974 206.513C711.108 206.802 710.983 207.146 710.694 207.28C700.724 211.936 684.061 213.156 669.37 213.156L669.367 213.153Z" fill="#84A5FF"/>
<path d="M675.4 154.815C669.288 154.815 666.585 150.774 666.546 150.713C666.376 150.445 666.452 150.089 666.716 149.919C666.984 149.745 667.336 149.821 667.512 150.089C667.713 150.393 672.537 157.49 684.687 150.92C684.966 150.774 685.313 150.874 685.468 151.154C685.62 151.434 685.513 151.784 685.234 151.936C681.288 154.069 678.027 154.818 675.4 154.818V154.815Z" fill="#84A5FF"/>
<path d="M695.633 90.4392C698.861 88.6226 703.217 88.4582 706.077 90.8105C707.57 92.0368 708.527 93.7957 709.913 95.1438C712.883 98.0316 717.5 98.7559 720.345 101.768C722.543 104.093 723.327 107.486 723.108 110.679C722.887 113.871 721.768 116.929 720.576 119.899C718.877 124.141 716.917 128.45 713.521 131.505C712.223 132.674 710.704 133.647 709.004 134.037C707.305 134.429 705.405 134.177 704.022 133.115C702.563 131.992 701.843 130.111 701.718 128.27C701.594 126.429 701.983 124.6 702.372 122.799C703.299 123.371 704.551 123.359 705.469 122.772C706.387 122.184 706.922 121.049 706.791 119.969C706.573 118.134 704.764 116.981 703.144 116.092C700.46 114.619 697.776 113.146 695.089 111.674C693.517 110.812 691.912 109.924 690.73 108.576C688.754 106.324 687.17 101.37 688.477 98.5276C689.927 95.372 692.596 92.1464 695.627 90.4392H695.633Z" fill="#F9B61D"/>
<path d="M663.765 105.396C663.765 105.396 663.601 87.165 686.216 91.97C690.043 92.7825 693.389 94.8487 695.848 97.8948C699.53 102.453 701.885 121.618 691.365 126.938C678.173 133.605 663.765 105.396 663.765 105.396Z" fill="#F9C143"/>
<path d="M687.195 120.781L686.672 139.091C686.532 143.738 682.86 147.509 678.219 147.755C678.064 147.77 677.912 147.77 677.757 147.77C672.562 147.77 668.428 143.309 668.872 138.063L668.902 137.771L670.1 123.861L671.622 123.584L687.192 120.785L687.195 120.781Z" fill="#E0896D"/>
<path d="M679.449 127.321C679.449 127.321 676.623 134.369 668.905 137.768L670.102 123.858L671.625 123.581L679.449 127.321Z" fill="#102048"/>
<path d="M663.765 105.396C663.765 105.396 658.002 129.436 670.106 130.592C682.21 131.746 687.204 120.785 687.204 120.785L688.742 107.13L681.249 96.3611L669.337 100.016L663.765 105.402V105.396Z" fill="#E0896D"/>
<path d="M663.765 105.396C663.765 105.396 674.899 99.1423 678.942 107.511C681.76 113.344 686.052 116.552 690.277 114.628C694.502 112.705 691.046 98.8562 691.046 98.8562L675.291 94.8181L665.877 100.204L663.765 105.396Z" fill="#F9C143"/>
<path d="M690.818 117.336C692.271 114.817 691.763 111.799 689.682 110.597C687.602 109.394 684.737 110.462 683.284 112.981C681.831 115.501 682.34 118.518 684.42 119.721C686.501 120.923 689.365 119.855 690.818 117.336Z" fill="#E0896D"/>
<path d="M685.857 117.258C685.857 117.258 685.839 117.258 685.83 117.258C685.62 117.242 685.462 117.06 685.474 116.847C685.572 115.48 686.435 112.9 688.994 112.9C689.207 112.9 689.377 113.073 689.377 113.283C689.377 113.493 689.204 113.667 688.994 113.667C686.508 113.667 686.249 116.768 686.237 116.902C686.222 117.102 686.055 117.258 685.854 117.258H685.857Z" fill="#102048"/>
<path d="M665.598 114.029C665.598 114.57 665.16 115.012 664.616 115.012C664.072 115.012 663.634 114.574 663.634 114.029C663.634 113.484 664.072 113.046 664.616 113.046C665.16 113.046 665.598 113.484 665.598 114.029Z" fill="#102048"/>
<path d="M672.121 115.045C672.722 115.045 673.209 114.558 673.209 113.956C673.209 113.354 672.722 112.866 672.121 112.866C671.52 112.866 671.033 113.354 671.033 113.956C671.033 114.558 671.52 115.045 672.121 115.045Z" fill="#102048"/>
<path d="M667.649 120.018C666.798 120.018 666.221 119.75 665.932 119.22C665.172 117.833 666.932 115.231 667.294 114.723C667.415 114.549 667.656 114.51 667.832 114.631C668.005 114.753 668.045 114.994 667.923 115.167C666.987 116.482 666.233 118.167 666.607 118.846C666.768 119.141 667.191 119.269 667.844 119.239C667.85 119.239 667.859 119.239 667.865 119.239C668.069 119.239 668.236 119.397 668.248 119.604C668.257 119.817 668.096 119.996 667.887 120.009C667.805 120.012 667.729 120.015 667.653 120.015L667.649 120.018Z" fill="#102048"/>
<path opacity="0.4" d="M678.888 121.528C680.64 120.802 681.473 118.79 680.747 117.036C680.021 115.281 678.011 114.448 676.259 115.175C674.506 115.901 673.674 117.913 674.4 119.667C675.126 121.422 677.135 122.255 678.888 121.528Z" fill="#E95D60"/>
<path d="M668.127 123.347C667.09 123.347 666.373 122.985 666.318 122.957C666.13 122.86 666.057 122.629 666.154 122.44C666.251 122.251 666.482 122.175 666.671 122.273C666.759 122.318 668.832 123.338 670.978 121.36C671.136 121.217 671.376 121.229 671.522 121.384C671.665 121.539 671.653 121.783 671.498 121.929C670.282 123.048 669.072 123.347 668.127 123.347Z" fill="#102048"/>
<path d="M666.771 111.862C666.048 111.707 665.391 111.5 664.783 111.509C664.479 111.488 664.196 111.527 663.908 111.607C663.604 111.655 663.33 111.82 662.972 111.96L662.935 111.975C662.813 112.02 662.677 111.963 662.631 111.841C662.607 111.78 662.61 111.716 662.634 111.661C662.804 111.275 663.093 110.91 663.5 110.685C663.899 110.465 664.373 110.35 664.823 110.368C665.719 110.45 666.513 110.822 667.036 111.5C667.115 111.604 667.096 111.75 666.993 111.829C666.938 111.871 666.868 111.887 666.801 111.871L666.768 111.865L666.771 111.862Z" fill="#102048"/>
<path d="M669.616 111.527C670.148 110.605 671.121 109.96 672.276 109.839C672.847 109.799 673.443 109.927 673.926 110.207C674.419 110.478 674.793 110.879 675.063 111.327C675.13 111.436 675.094 111.579 674.984 111.646C674.917 111.686 674.838 111.689 674.771 111.661L674.747 111.649C674.3 111.454 673.92 111.229 673.516 111.129C673.13 110.986 672.741 110.949 672.352 110.98C671.568 110.995 670.765 111.397 669.948 111.832L669.92 111.847C669.808 111.908 669.671 111.865 669.61 111.753C669.571 111.68 669.577 111.597 669.613 111.531L669.616 111.527Z" fill="#102048"/>
<path d="M853 441.46H0V443H853V441.46Z" fill="#102048"/>
</g>
<defs>
<clipPath id="clip0_468_1591">
<rect width="853" height="443" fill="white"/>
</clipPath>
</defs>
</svg>
